<svg xmlns="http://www.w3.org/2000/svg" width="1200" height="400" viewBox="0 0 1200 400">
  <defs>
    <linearGradient id="bg" x1="0%" y1="0%" x2="100%" y2="100%">
      <stop offset="0%" style="stop-color:#1e3a5f;stop-opacity:1"/>
      <stop offset="50%" style="stop-color:#2563EB;stop-opacity:1"/>
      <stop offset="100%" style="stop-color:#06B6D4;stop-opacity:1"/>
    </linearGradient>
    <pattern id="grid" width="40" height="40" patternUnits="userSpaceOnUse">
      <path d="M 40 0 L 0 0 0 40" fill="none" stroke="rgba(255,255,255,0.06)" stroke-width="1"/>
    </pattern>
  </defs>
  <rect width="1200" height="400" fill="url(#bg)" rx="16"/>
  <rect width="1200" height="400" fill="url(#grid)" rx="16"/>
  <!-- Decorative circles -->
  <circle cx="100" cy="80" r="120" fill="rgba(255,255,255,0.04)"/>
  <circle cx="1100" cy="320" r="150" fill="rgba(255,255,255,0.04)"/>
  <circle cx="900" cy="60" r="60" fill="rgba(255,255,255,0.03)"/>
  <!-- Blockchain icon -->
  <g transform="translate(540,60)" fill="none" stroke="rgba(255,255,255,0.9)" stroke-width="2.5">
    <rect x="0" y="0" width="28" height="28" rx="4"/>
    <rect x="46" y="0" width="28" height="28" rx="4"/>
    <rect x="92" y="0" width="28" height="28" rx="4"/>
    <line x1="28" y1="14" x2="46" y2="14"/>
    <line x1="74" y1="14" x2="92" y2="14"/>
  </g>
  <text x="600" y="160" text-anchor="middle" font-family="system-ui,-apple-system,sans-serif" font-size="52" font-weight="800" fill="white">Introdu&#231;&#227;o &#224; Web3</text>
  <text x="600" y="210" text-anchor="middle" font-family="system-ui,-apple-system,sans-serif" font-size="22" fill="rgba(255,255,255,0.8)">Blockchain &#8226; NFTs &#8226; Criptomoedas &#8226; Seguran&#231;a</text>
  <rect x="480" y="240" width="240" height="1" fill="rgba(255,255,255,0.3)" rx="1"/>
  <text x="600" y="280" text-anchor="middle" font-family="system-ui,-apple-system,sans-serif" font-size="16" fill="rgba(255,255,255,0.6)">3h de conte&#250;do &#8226; Iniciante</text>
  <text x="600" y="370" text-anchor="middle" font-family="system-ui,-apple-system,sans-serif" font-size="14" font-weight="600" letter-spacing="2" fill="rgba(255,255,255,0.5)">WEB3EDUBRASIL</text>
</svg>
